<svg width="150" height="172.5" viewBox="0 0 100 115" xmlns="http://www.w3.org/2000/svg" aria-labelledby="logoTitle logoDesc">
    <title id="logoTitle">ML Breakout Logo</title>
    <desc id="logoDesc">A logo depicting Breakout game elements (bricks, paddle, ball) with a central brick stylized as a computer chip, representing machine learning. The text "ML Breakout" is below.</desc>

    <rect x="21" y="20" width="18" height="8" fill="#0284c7" rx="1" ry="1"/> <g>
        <rect x="41" y="20" width="18" height="8" fill="#2dd4bf" rx="1" ry="1"/></g>
    <rect x="61" y="20" width="18" height="8" fill="#0284c7" rx="1" ry="1"/> <rect x="21" y="30" width="18" height="8" fill="#0284c7" rx="1" ry="1"/>
    <rect x="41" y="30" width="18" height="8" fill="#0284c7" rx="1" ry="1"/>
    <rect x="61" y="30" width="18" height="8" fill="#0284c7" rx="1" ry="1"/>
    
    <rect x="21" y="40" width="18" height="8" fill="#0284c7" rx="1" ry="1"/>
    <rect x="41" y="40" width="18" height="8" fill="#0284c7" rx="1" ry="1"/>
    <rect x="61" y="40" width="18" height="8" fill="#0284c7" rx="1" ry="1"/>

    <circle cx="50" cy="58" r="5" fill="#fbbf24"/> <rect x="32" y="70" width="36" height="7" fill="#94a3b8" rx="1.5" ry="1.5"/> <text x="50" y="97" font-family="Inter, sans-serif" font-size="10" fill="#f1f5f9" text-anchor="middle" font-weight="bold" class="svg-text">
        ML Breakout
    </text>
</svg>